<svg xmlns="http://www.w3.org/2000/svg" viewBox="0 0 18 18"><g transform="matrix(-1 0 0 1 17.9 .1)" fill="#000000" fill-rule="evenodd"><path d="M8.227.095A7.35 7.35 0 0 1 14.6 10.182L10.582 7.77c-.898-.539-1.975.325-1.687 1.354a624.218 624.218 0 0 1 .837 3.027l.597 2.176a7.404 7.404 0 0 1-1.269.342l-.434.076A7.349 7.349 0 0 1 0 7.451c.725.525 1.702.66 2.578.27l.142-.064c.72-.321 1.223-.93 1.43-1.631a4.313 4.313 0 0 0 1.546-.37l.237-.105A4.324 4.324 0 0 0 8.227.095Zm3.667 11.21.187.112 1.295.778c-.293.348-.62.668-.975.955a9.556 9.556 0 0 0-.033-.122l-.099-.36-.32-1.164-.055-.2Zm-4.817.397a.7.7 0 0 0-.71.69.7.7 0 0 0 .71.688.7.7 0 0 0 .71-.689.7.7 0 0 0-.71-.689ZM5.894 7.568c-.784 0-1.42.617-1.42 1.378 0 .761.636 1.378 1.42 1.378.784 0 1.42-.617 1.42-1.378 0-.761-.636-1.378-1.42-1.378Zm5.205-3.675c-.523 0-.947.411-.947.919 0 .507.424.918.947.918.522 0 .946-.41.946-.918s-.424-.92-.946-.92Z"/><circle cx="4.564" cy=".946" r="1"/><circle cx="1.579" cy="3.549" r="1"/><path d="M10.002 8.794c.835 2.99 1.68 6.126 2.406 8.733.511-.67 1.018-1.342 1.526-2.014l1.552 2.058 1.393-1.127-1.55-2.055c.755-.344 1.51-.687 2.265-1.033-2.627-1.58-5.331-3.205-7.592-4.562Z" fill-rule="nonzero"/></g></svg>
