<svg xmlns="http://www.w3.org/2000/svg" xmlns:xlink="http://www.w3.org/1999/xlink" viewBox="0 0 328 90"><defs><filter x="-8.2%" y="-28.2%" width="116.3%" height="179%" filterUnits="objectBoundingBox" id="a"><feOffset dy="7" in="SourceAlpha" result="shadowOffsetOuter1"/><feGaussianBlur stdDeviation="7" in="shadowOffsetOuter1" result="shadowBlurOuter1"/><feComposite in="shadowBlurOuter1" in2="SourceAlpha" operator="out" result="shadowBlurOuter1"/><feColorMatrix values="0 0 0 0 0.870588235 0 0 0 0 0.917647059 0 0 0 0 0.964705882 0 0 0 0.117679196 0" in="shadowBlurOuter1" result="shadowMatrixOuter1"/><feOffset dy="1" in="SourceAlpha" result="shadowOffsetOuter2"/><feGaussianBlur stdDeviation="2" in="shadowOffsetOuter2" result="shadowBlurOuter2"/><feComposite in="shadowBlurOuter2" in2="SourceAlpha" operator="out" result="shadowBlurOuter2"/><feColorMatrix values="0 0 0 0 0.870588235 0 0 0 0 0.917647059 0 0 0 0 0.964705882 0 0 0 0.425808566 0" in="shadowBlurOuter2" result="shadowMatrixOuter2"/><feMerge><feMergeNode in="shadowMatrixOuter1"/><feMergeNode in="shadowMatrixOuter2"/></feMerge></filter><filter x="-18.6%" y="-10.3%" width="137.1%" height="138.8%" filterUnits="objectBoundingBox" id="c"><feMorphology radius=".27" operator="dilate" in="SourceAlpha" result="shadowSpreadOuter1"/><feOffset dy="2" in="shadowSpreadOuter1" result="shadowOffsetOuter1"/><feGaussianBlur stdDeviation="1" in="shadowOffsetOuter1" result="shadowBlurOuter1"/><feComposite in="shadowBlurOuter1" in2="SourceAlpha" operator="out" result="shadowBlurOuter1"/><feColorMatrix values="0 0 0 0 0.870588235 0 0 0 0 0.917647059 0 0 0 0 0.964705882 0 0 0 0.5 0" in="shadowBlurOuter1"/></filter><filter x="-16.4%" y="-8.1%" width="132.8%" height="134.3%" filterUnits="objectBoundingBox" id="e"><feGaussianBlur stdDeviation="1" in="SourceAlpha" result="shadowBlurInner1"/><feOffset dy="-1" in="shadowBlurInner1" result="shadowOffsetInner1"/><feComposite in="shadowOffsetInner1" in2="SourceAlpha" operator="arithmetic" k2="-1" k3="1" result="shadowInnerInner1"/><feColorMatrix values="0 0 0 0 0 0 0 0 0 0 0 0 0 0 0 0 0 0 0.172557911 0" in="shadowInnerInner1"/></filter><filter x="-136.1%" y="-75.7%" width="372.3%" height="384.7%" filterUnits="objectBoundingBox" id="f"><feMorphology radius=".27" operator="dilate" in="SourceAlpha" result="shadowSpreadOuter1"/><feOffset dy="2" in="shadowSpreadOuter1" result="shadowOffsetOuter1"/><feGaussianBlur stdDeviation="1" in="shadowOffsetOuter1" result="shadowBlurOuter1"/><feComposite in="shadowBlurOuter1" in2="SourceAlpha" operator="out" result="shadowBlurOuter1"/><feColorMatrix values="0 0 0 0 0.870588235 0 0 0 0 0.917647059 0 0 0 0 0.964705882 0 0 0 1 0" in="shadowBlurOuter1"/></filter><filter x="-120.2%" y="-59%" width="340.4%" height="351.3%" filterUnits="objectBoundingBox" id="h"><feGaussianBlur stdDeviation="1" in="SourceAlpha" result="shadowBlurInner1"/><feOffset dy="-1" in="shadowBlurInner1" result="shadowOffsetInner1"/><feComposite in="shadowOffsetInner1" in2="SourceAlpha" operator="arithmetic" k2="-1" k3="1" result="shadowInnerInner1"/><feColorMatrix values="0 0 0 0 0 0 0 0 0 0 0 0 0 0 0 0 0 0 0.172557911 0" in="shadowInnerInner1"/></filter><filter x="-272.3%" y="-151.3%" width="644.6%" height="669.4%" filterUnits="objectBoundingBox" id="i"><feMorphology radius=".27" operator="dilate" in="SourceAlpha" result="shadowSpreadOuter1"/><feOffset dy="2" in="shadowSpreadOuter1" result="shadowOffsetOuter1"/><feGaussianBlur stdDeviation="1" in="shadowOffsetOuter1" result="shadowBlurOuter1"/><feComposite in="shadowBlurOuter1" in2="SourceAlpha" operator="out" result="shadowBlurOuter1"/><feColorMatrix values="0 0 0 0 0.870588235 0 0 0 0 0.917647059 0 0 0 0 0.964705882 0 0 0 1 0" in="shadowBlurOuter1"/></filter><filter x="-240.4%" y="-118%" width="580.8%" height="602.7%" filterUnits="objectBoundingBox" id="k"><feGaussianBlur stdDeviation="1" in="SourceAlpha" result="shadowBlurInner1"/><feOffset dy="-1" in="shadowBlurInner1" result="shadowOffsetInner1"/><feComposite in="shadowOffsetInner1" in2="SourceAlpha" operator="arithmetic" k2="-1" k3="1" result="shadowInnerInner1"/><feColorMatrix values="0 0 0 0 0 0 0 0 0 0 0 0 0 0 0 0 0 0 0.172557911 0" in="shadowInnerInner1"/></filter><filter x="-9.4%" y="-18.5%" width="118.8%" height="156%" filterUnits="objectBoundingBox" id="l"><feMorphology radius=".375" operator="dilate" in="SourceAlpha" result="shadowSpreadOuter1"/><feOffset dy="2" in="shadowSpreadOuter1" result="shadowOffsetOuter1"/><feGaussianBlur stdDeviation="1.5" in="shadowOffsetOuter1" result="shadowBlurOuter1"/><feComposite in="shadowBlurOuter1" in2="SourceAlpha" operator="out" result="shadowBlurOuter1"/><feColorMatrix values="0 0 0 0 0.870588235 0 0 0 0 0.917647059 0 0 0 0 0.964705882 0 0 0 0.511964598 0" in="shadowBlurOuter1"/></filter><filter x="-7.8%" y="-13.7%" width="115.6%" height="146.4%" filterUnits="objectBoundingBox" id="n"><feGaussianBlur stdDeviation="1" in="SourceAlpha" result="shadowBlurInner1"/><feOffset dy="-1" in="shadowBlurInner1" result="shadowOffsetInner1"/><feComposite in="shadowOffsetInner1" in2="SourceAlpha" operator="arithmetic" k2="-1" k3="1" result="shadowInnerInner1"/><feColorMatrix values="0 0 0 0 0 0 0 0 0 0 0 0 0 0 0 0 0 0 0.172557911 0" in="shadowInnerInner1"/></filter><filter x="-58.1%" y="-32.1%" width="219.1%" height="182.3%" filterUnits="objectBoundingBox" id="o"><feMorphology radius=".45" operator="dilate" in="SourceAlpha" result="shadowSpreadOuter1"/><feOffset dy="2" in="shadowSpreadOuter1" result="shadowOffsetOuter1"/><feGaussianBlur stdDeviation="2" in="shadowOffsetOuter1" result="shadowBlurOuter1"/><feComposite in="shadowBlurOuter1" in2="SourceAlpha" operator="out" result="shadowBlurOuter1"/><feColorMatrix values="0 0 0 0 0.870588235 0 0 0 0 0.917647059 0 0 0 0 0.964705882 0 0 0 1 0" in="shadowBlurOuter1"/></filter><filter x="-46.6%" y="-24.2%" width="196%" height="166.6%" filterUnits="objectBoundingBox" id="q"><feGaussianBlur stdDeviation="1" in="SourceAlpha" result="shadowBlurInner1"/><feOffset dy="-1" in="shadowBlurInner1" result="shadowOffsetInner1"/><feComposite in="shadowOffsetInner1" in2="SourceAlpha" operator="arithmetic" k2="-1" k3="1" result="shadowInnerInner1"/><feColorMatrix values="0 0 0 0 0 0 0 0 0 0 0 0 0 0 0 0 0 0 0.172557911 0" in="shadowInnerInner1"/></filter><filter x="-8%" y="-18.5%" width="116.1%" height="156%" filterUnits="objectBoundingBox" id="r"><feMorphology radius=".375" operator="dilate" in="SourceAlpha" result="shadowSpreadOuter1"/><feOffset dy="2" in="shadowSpreadOuter1" result="shadowOffsetOuter1"/><feGaussianBlur stdDeviation="1.5" in="shadowOffsetOuter1" result="shadowBlurOuter1"/><feComposite in="shadowBlurOuter1" in2="SourceAlpha" operator="out" result="shadowBlurOuter1"/><feColorMatrix values="0 0 0 0 0.870588235 0 0 0 0 0.917647059 0 0 0 0 0.964705882 0 0 0 0.511964598 0" in="shadowBlurOuter1"/></filter><filter x="-6.7%" y="-13.7%" width="113.4%" height="146.4%" filterUnits="objectBoundingBox" id="t"><feGaussianBlur stdDeviation="1" in="SourceAlpha" result="shadowBlurInner1"/><feOffset dy="-1" in="shadowBlurInner1" result="shadowOffsetInner1"/><feComposite in="shadowOffsetInner1" in2="SourceAlpha" operator="arithmetic" k2="-1" k3="1" result="shadowInnerInner1"/><feColorMatrix values="0 0 0 0 0 0 0 0 0 0 0 0 0 0 0 0 0 0 0.172557911 0" in="shadowInnerInner1"/></filter><filter x="-17.9%" y="-17.9%" width="135.7%" height="135.7%" filterUnits="objectBoundingBox" id="v"><feGaussianBlur stdDeviation="1" in="SourceAlpha" result="shadowBlurInner1"/><feOffset dy="-3" in="shadowBlurInner1" result="shadowOffsetInner1"/><feComposite in="shadowOffsetInner1" in2="SourceAlpha" operator="arithmetic" k2="-1" k3="1" result="shadowInnerInner1"/><feColorMatrix values="0 0 0 0 0 0 0 0 0 0 0 0 0 0 0 0 0 0 0.172557911 0" in="shadowInnerInner1"/></filter><filter x="-17.9%" y="-17.9%" width="135.7%" height="135.7%" filterUnits="objectBoundingBox" id="x"><feGaussianBlur stdDeviation="1" in="SourceAlpha" result="shadowBlurInner1"/><feOffset dy="-3" in="shadowBlurInner1" result="shadowOffsetInner1"/><feComposite in="shadowOffsetInner1" in2="SourceAlpha" operator="arithmetic" k2="-1" k3="1" result="shadowInnerInner1"/><feColorMatrix values="0 0 0 0 0 0 0 0 0 0 0 0 0 0 0 0 0 0 0.172557911 0" in="shadowInnerInner1"/></filter><path d="M10.256 0h279.488c3.567 0 4.86.371 6.163 1.069a7.27 7.27 0 0 1 3.024 3.024C299.63 5.396 300 6.689 300 10.256v41.488c0 3.567-.371 4.86-1.069 6.163a7.27 7.27 0 0 1-3.024 3.024c-1.303.698-2.596 1.069-6.163 1.069H10.256c-3.567 0-4.86-.371-6.163-1.069a7.27 7.27 0 0 1-3.024-3.024C.37 56.604 0 55.311 0 51.744V10.256c0-3.567.371-4.86 1.069-6.163a7.27 7.27 0 0 1 3.024-3.024C5.396.37 6.689 0 10.256 0Z" id="b"/><path d="M11.575 0c3.045.019 5.959 1.192 8.1 3.264 2.142 2.07 3.338 4.87 3.325 7.783-.013 2.914-1.234 5.703-3.395 7.756-2.16 2.054-5.084 3.203-8.13 3.197-3.045-.006-5.964-1.168-8.115-3.23C1.208 16.708 0 13.913 0 11c3.725.997 7.08-2.193 5.75-5.5 3.836.648 6.503-2.495 5.825-5.5ZM9.023 13.79c-.508 0-.995.194-1.354.538-.36.343-.562.81-.562 1.296s.202.952.561 1.296c.36.344.847.537 1.355.537.509 0 .996-.193 1.356-.537.36-.344.561-.81.561-1.296s-.202-.953-.561-1.297a1.962 1.962 0 0 0-1.356-.537Zm8.227-3.707c-.508 0-.996.193-1.355.537-.36.344-.561.81-.562 1.296 0 .487.202.953.562 1.297.36.344.847.537 1.355.537s.996-.193 1.355-.537c.36-.344.562-.81.562-1.297 0-.486-.202-.952-.562-1.296a1.962 1.962 0 0 0-1.355-.537Zm-1.437-5.5c-.382 0-.747.145-1.017.403-.27.258-.42.607-.42.972s.15.714.42.972.635.403 1.017.403c.38 0 .746-.145 1.016-.403s.421-.607.421-.972-.151-.714-.42-.972a1.472 1.472 0 0 0-1.017-.403Z" id="d"/><path d="M4.966 3.5c0 .828-.702 1.5-1.568 1.5-.866 0-1.568-.672-1.568-1.5 0-.829.702-1.5 1.568-1.5.866 0 1.568.671 1.568 1.5" id="g"/><path d="M3.398 7.75c0 .414-.351.75-.784.75-.433 0-.784-.336-.784-.75S2.18 7 2.614 7c.433 0 .784.336.784.75" id="j"/><path d="M6.41 0h49.769c2.228 0 3.037.232 3.851.668a4.543 4.543 0 0 1 1.89 1.89c.436.815.668 1.623.668 3.852v8.18c0 2.23-.232 3.037-.668 3.852a4.543 4.543 0 0 1-1.89 1.89c-.814.436-1.623.668-3.851.668H6.409c-2.228 0-3.036-.232-3.851-.668a4.543 4.543 0 0 1-1.89-1.89C.232 17.627 0 16.82 0 14.59V6.41c0-2.23.232-3.037.668-3.852a4.543 4.543 0 0 1 1.89-1.89C3.373.232 4.18 0 6.41 0Z" id="m"/><path d="M54.245 11c-.748 5.706-1.589 11.664-2.245 16.636 1.481-.758 2.957-1.525 4.434-2.289L57.761 30l3.497-.881-1.324-4.646c1.688-.023 3.377-.046 5.066-.072-3.721-4.64-7.55-9.414-10.755-13.401Z" id="p"/><path d="M6.41 0h60.18c2.23 0 3.037.232 3.852.668a4.543 4.543 0 0 1 1.89 1.89c.436.815.668 1.623.668 3.852v8.18c0 2.23-.232 3.037-.668 3.852a4.543 4.543 0 0 1-1.89 1.89c-.815.436-1.623.668-3.852.668H6.41c-2.23 0-3.037-.232-3.852-.668a4.543 4.543 0 0 1-1.89-1.89C.232 17.627 0 16.82 0 14.59V6.41c0-2.23.232-3.037.668-3.852a4.543 4.543 0 0 1 1.89-1.89C3.373.232 4.18 0 6.41 0Z" id="s"/><path d="M7 0a7 7 0 1 1 0 14A7 7 0 0 1 7 0Z" id="u"/><path d="M7 0a7 7 0 1 1 0 14A7 7 0 0 1 7 0Z" id="w"/></defs><g fill="none" fill-rule="evenodd"><g transform="translate(14 7)"><use fill="#000" filter="url(#a)" xlink:href="#b"/><path stroke="#DEEAF6" d="M10.256.5h279.488c3.425 0 4.674.339 5.928 1.01a6.776 6.776 0 0 1 2.819 2.818c.67 1.254 1.009 2.503 1.009 5.928v41.488c0 3.425-.339 4.674-1.01 5.928a6.776 6.776 0 0 1-2.818 2.819c-1.254.67-2.503 1.009-5.928 1.009H10.256c-3.425 0-4.674-.339-5.928-1.01a6.776 6.776 0 0 1-2.819-2.818C.84 56.418.5 55.169.5 51.744V10.256c0-3.425.339-4.674 1.01-5.928A6.776 6.776 0 0 1 4.327 1.51C5.582.84 6.831.5 10.256.5Z" stroke-linejoin="square" fill="#FFF"/></g><g fill-rule="nonzero"><g transform="translate(158 26)"><use fill="#000" filter="url(#c)" xlink:href="#d"/><use fill="#DEEAF6" xlink:href="#d"/><use fill="#000" filter="url(#e)" xlink:href="#d"/><use stroke="#B0C7DD" stroke-width=".54" xlink:href="#d"/></g><g transform="translate(158 26)"><use fill="#000" filter="url(#f)" xlink:href="#g"/><use fill="#DEEAF6" xlink:href="#g"/><use fill="#000" filter="url(#h)" xlink:href="#g"/><use stroke="#B0C7DD" stroke-width=".54" xlink:href="#g"/></g><g transform="translate(158 26)"><use fill="#000" filter="url(#i)" xlink:href="#j"/><use fill="#DEEAF6" xlink:href="#j"/><use fill="#000" filter="url(#k)" xlink:href="#j"/><use stroke="#B0C7DD" stroke-width=".54" xlink:href="#j"/></g></g><g fill-rule="nonzero" transform="translate(235 27)"><use fill="#000" filter="url(#l)" xlink:href="#m"/><use fill="#FFF" xlink:href="#m"/><use fill="#000" filter="url(#n)" xlink:href="#m"/><use stroke="#B0C7DD" stroke-width=".75" xlink:href="#m"/></g><text font-family="Inter-SemiBold, Inter" font-size="10" font-weight="500" fill="#4C5C69" transform="translate(235 27)">
                        <tspan x="13" y="13">Decline</tspan>
                    </text><g fill-rule="nonzero" transform="rotate(-11 316.203 -1186.284)"><use fill="#000" filter="url(#o)" xlink:href="#p"/><use fill="#FFF" xlink:href="#p"/><use fill="#000" filter="url(#q)" xlink:href="#p"/><use stroke="#B0C7DD" stroke-width=".9" xlink:href="#p"/></g><g fill-rule="nonzero" transform="translate(36 27)"><use fill="#000" filter="url(#r)" xlink:href="#s"/><use fill="#FFF" xlink:href="#s"/><use fill="#000" filter="url(#t)" xlink:href="#s"/><use stroke="#B0C7DD" stroke-width=".75" xlink:href="#s"/></g><text font-family="Inter-SemiBold, Inter" font-size="10" font-weight="500" fill="#91A0AF" transform="translate(36 27)">
                        <tspan x="5" y="13">http://</tspan>
                    </text><g stroke="#DEEAF6" stroke-linecap="square"><path d="M185.5 36.5h9M216.5 36.5h9"/></g><g stroke="#DEEAF6" stroke-linecap="square"><path d="M112.5 36.5h9M143.5 36.5h9"/></g><g fill-rule="nonzero" transform="translate(126 29)"><use fill="#2A3845" xlink:href="#u"/><use fill="#000" filter="url(#v)" xlink:href="#u"/></g><path stroke="#FFF" stroke-width=".8" d="M132.222 33.667 134.556 36l-2.334 2.333"/><g fill-rule="nonzero" transform="translate(199 29)"><use fill="#2A3845" xlink:href="#w"/><use fill="#000" filter="url(#x)" xlink:href="#w"/></g><path stroke="#FFF" stroke-width=".8" d="M205.222 33.667 207.556 36l-2.334 2.333"/></g></svg>